<?xml version="1.0" encoding="UTF-8" standalone="no"?>
<!DOCTYPE svg PUBLIC "-//W3C//DTD SVG 1.1//EN" "http://www.w3.org/Graphics/SVG/1.1/DTD/svg11.dtd">
<svg xmlns="http://www.w3.org/2000/svg" xmlns:xlink="http://www.w3.org/1999/xlink" version="1.1" width="842pt" height="595pt" viewBox="0 0 842 595">
<g enable-background="new">
<clipPath id="cp0">
<path transform="matrix(1,0,0,-1,0,595)" d="M 0 0 L 0 892.98 L 1262.88 892.98 L 1262.88 0 L 0 0 "/>
</clipPath>
<g clip-path="url(#cp0)">
<g id="Layer-1" data-name="Visible (ISO)">
<path transform="matrix(1,0,0,-1,0,595)" stroke-width="1.4399999" stroke-linecap="round" stroke-linejoin="round" fill="none" stroke="#000000" d="M 291.96 211.68 L 277.74 211.68 L 277.74 217.26 L 291.96 217.26 L 291.96 211.68 "/>
<path transform="matrix(-1,-.0001,-.0001,1,288.99,421.57)" stroke-width="1.4399999" stroke-linecap="round" stroke-linejoin="round" fill="none" stroke="#000000" d="M 4.23 0 C 4.23 2.33609 2.33629 4.22989 .0002 4.23 C -2.33588 4.23011 -4.22978 2.33649 -4.23 .00041 C -4.23022 -2.33568 -2.33669 -4.22966 -.00061 -4.23 C 2.33548 -4.23034 4.22955 -2.3369 4.23 -.00081 "/>
<path transform="matrix(1,0,0,-1,0,595)" stroke-width="1.4399999" stroke-linecap="round" stroke-linejoin="round" fill="none" stroke="#000000" d="M 331.56 221.58 L 323.1 221.58 L 323.1 217.26 L 306 217.26 L 306 221.58 L 271.98 221.58 L 271.98 217.26 L 255.06 217.26 L 255.06 221.58 L 246.6 221.58 L 246.6 196.02 L 242.28 196.02 L 242.28 179.1 L 246.6 179.1 L 246.6 166.32 L 331.56 166.32 L 331.56 179.1 L 335.88 179.1 L 335.88 196.02 L 331.56 196.02 L 331.56 221.58 "/>
<path transform="matrix(-1,-.0001,-.0001,1,405.27003,421.57)" stroke-width="1.4399999" stroke-linecap="round" stroke-linejoin="round" fill="none" stroke="#000000" d="M 4.23 0 C 4.23 2.33609 2.33629 4.22989 .0002 4.23 C -2.33588 4.23011 -4.22978 2.33649 -4.23 .00041 C -4.23022 -2.33568 -2.33669 -4.22966 -.00061 -4.23 C 2.33548 -4.23034 4.22955 -2.3369 4.23 -.00081 "/>
<path transform="matrix(1,0,0,-1,0,595)" stroke-width="1.4399999" stroke-linecap="round" stroke-linejoin="round" fill="none" stroke="#000000" d="M 369.9 211.68 L 362.7 211.68 L 362.7 184.68 L 358.56 184.68 L 358.56 173.34 L 362.7 173.34 L 362.7 166.32 "/>
<path transform="matrix(-1,-.0001,-.0001,1,374.13,383.41)" stroke-width="1.4399999" stroke-linecap="round" stroke-linejoin="round" fill="none" stroke="#000000" d="M 4.23 0 C 4.23 2.33601 2.33641 4.22978 .00041 4.23 "/>
<path transform="matrix(1,0,0,-1,0,595)" stroke-width="1.4399999" stroke-linecap="round" stroke-linejoin="round" fill="none" stroke="#000000" d="M 393.84 207.36 L 374.04 207.36 "/>
<path transform="matrix(-.0001,1,1,.0001,393.93,383.41)" stroke-width="1.4399999" stroke-linecap="round" stroke-linejoin="round" fill="none" stroke="#000000" d="M 4.23 0 C 4.23 2.33601 2.33641 4.22978 .00041 4.23 "/>
<path transform="matrix(1,0,0,-1,0,595)" stroke-width="1.4399999" stroke-linecap="round" stroke-linejoin="round" fill="none" stroke="#000000" d="M 412.38 211.68 L 398.16 211.68 "/>
<path transform="matrix(-1,-.0001,-.0001,1,416.61,383.41)" stroke-width="1.4399999" stroke-linecap="round" stroke-linejoin="round" fill="none" stroke="#000000" d="M 4.23 0 C 4.23 2.33601 2.33641 4.22978 .00041 4.23 "/>
<path transform="matrix(1,0,0,-1,0,595)" stroke-width="1.4399999" stroke-linecap="round" stroke-linejoin="round" fill="none" stroke="#000000" d="M 436.5 207.36 L 416.52 207.36 "/>
<path transform="matrix(-.0001,1,1,.0001,436.41,383.41)" stroke-width="1.4399999" stroke-linecap="round" stroke-linejoin="round" fill="none" stroke="#000000" d="M 4.23 0 C 4.23 2.33601 2.33641 4.22978 .00041 4.23 "/>
<path transform="matrix(1,0,0,-1,0,595)" stroke-width="1.4399999" stroke-linecap="round" stroke-linejoin="round" fill="none" stroke="#000000" d="M 362.7 166.32 L 447.84 166.32 L 447.84 173.34 L 451.98 173.34 L 451.98 184.68 L 447.84 184.68 L 447.84 211.68 L 440.64 211.68 "/>
<path transform="matrix(-.2967,-.95497,-.95497,.2967,470.43,348.85)" stroke-width="1.4399999" stroke-linecap="round" stroke-linejoin="round" fill="none" stroke="#000000" d="M 8.55 0 C 8.55 3.74455 6.1134 7.05341 2.53757 8.16476 "/>
<path transform="matrix(1,0,0,-1,0,595)" stroke-width="1.4399999" stroke-linecap="round" stroke-linejoin="round" fill="none" stroke="#000000" d="M 340.2 246.15 C 340.2 249.89455 337.7634 253.2034 334.18757 254.31476 "/>
<path transform="matrix(1,0,0,-1,0,595)" stroke-width="1.4399999" stroke-linecap="round" stroke-linejoin="round" fill="none" stroke="#000000" d="M 468 254.34 L 546.48 278.64 "/>
<path transform="matrix(1,0,0,-1,0,595)" stroke-width="1.4399999" stroke-linecap="round" stroke-linejoin="round" fill="none" stroke="#000000" d="M 340.02 246.06 L 340.02 244.26 "/>
<path transform="matrix(1,0,0,-1,0,595)" stroke-width="1.4399999" stroke-linecap="round" stroke-linejoin="round" fill="none" stroke="#000000" d="M 461.88 244.26 L 461.88 246.06 "/>
<path transform="matrix(.0001,-1,-1,-.0001,544.05,308.16999)" stroke-width="1.4399999" stroke-linecap="round" stroke-linejoin="round" fill="none" stroke="#000000" d="M 3.33 0 C 3.33 1.83905 1.83921 3.32991 .00016 3.33 C -1.83889 3.33009 -3.32982 1.83937 -3.33 .00032 C -3.33018 -1.83873 -1.83952 -3.32974 -.00048 -3.33 C 1.83857 -3.33026 3.32965 -1.83968 3.33 -.00064 "/>
<path transform="matrix(.0001,-1,-1,-.0001,258.03,308.16999)" stroke-width="1.4399999" stroke-linecap="round" stroke-linejoin="round" fill="none" stroke="#000000" d="M 3.33 0 C 3.33 1.83905 1.83921 3.32991 .00016 3.33 C -1.83889 3.33009 -3.32982 1.83937 -3.33 .00032 C -3.33018 -1.83873 -1.83952 -3.32974 -.00048 -3.33 C 1.83857 -3.33026 3.32965 -1.83968 3.33 -.00064 "/>
<path transform="matrix(.95497,-.2967,-.2967,-.95497,544.05,308.16999)" stroke-width="1.4399999" stroke-linecap="round" stroke-linejoin="round" fill="none" stroke="#000000" d="M 8.55 0 C 8.55 4.40312 5.20601 8.08624 .82336 8.51026 "/>
<path transform="matrix(1,0,0,-1,0,595)" stroke-width="1.4399999" stroke-linecap="round" stroke-linejoin="round" fill="none" stroke="#000000" d="M 552.06 289.26 L 552.06 289.26 "/>
<path transform="matrix(.29661,.955,.955,-.29661,544.05,308.16999)" stroke-width="1.4399999" stroke-linecap="round" stroke-linejoin="round" fill="none" stroke="#000000" d="M 8.55 0 C 8.55 4.72171 4.72253 8.54955 .00082 8.55 "/>
<path transform="matrix(1,0,0,-1,0,595)" stroke-width="1.4399999" stroke-linecap="round" stroke-linejoin="round" fill="none" stroke="#000000" d="M 354.24 230.22 L 354.24 239.94 L 447.84 239.94 L 447.84 230.22 "/>
<path transform="matrix(1,0,0,-1,0,595)" stroke-width="1.4399999" stroke-linecap="round" stroke-linejoin="round" fill="none" stroke="#000000" d="M 255.42 278.64 L 334.08 254.34 "/>
<path transform="matrix(-.95494,-.29679,-.29679,.95494,258.03,308.16999)" stroke-width="1.4399999" stroke-linecap="round" stroke-linejoin="round" fill="none" stroke="#000000" d="M 8.55 0 C 8.55 4.72171 4.72253 8.54955 .00082 8.55 "/>
<path transform="matrix(1,0,0,-1,0,595)" stroke-width="1.4399999" stroke-linecap="round" stroke-linejoin="round" fill="none" stroke="#000000" d="M 249.84 289.26 L 249.84 289.26 "/>
<path transform="matrix(.20355,-.97907,-.97907,-.20355,258.03,308.16999)" stroke-width="1.4399999" stroke-linecap="round" stroke-linejoin="round" fill="none" stroke="#000000" d="M 8.55 0 C 8.55 4.40312 5.20601 8.08624 .82336 8.51026 "/>
<path transform="matrix(1,0,0,-1,0,595)" stroke-width="1.4399999" stroke-linecap="round" stroke-linejoin="round" fill="none" stroke="#000000" d="M 542.34 295.2 L 440.64 273.96 L 361.26 273.96 L 259.74 295.2 "/>
<path transform="matrix(-.0001,1,1,.0001,447.75,350.65)" stroke-width="1.4399999" stroke-linecap="round" stroke-linejoin="round" fill="none" stroke="#000000" d="M 14.13 0 C 14.13 7.80325 7.80461 14.12925 .00135 14.13 "/>
<path transform="matrix(-1,-.0001,-.0001,1,354.15,350.65)" stroke-width="1.4399999" stroke-linecap="round" stroke-linejoin="round" fill="none" stroke="#000000" d="M 14.13 0 C 14.13 7.80325 7.80461 14.12925 .00135 14.13 "/>
<path transform="matrix(1,0,0,-1,0,595)" stroke-width="1.4399999" stroke-linecap="round" stroke-linejoin="round" fill="none" stroke="#000000" d="M 419.4 319.32 L 419.4 339.3 L 423.72 339.3 L 423.72 319.32 L 419.4 319.32 "/>
<path transform="matrix(1,0,0,-1,0,595)" stroke-width="1.4399999" stroke-linecap="round" stroke-linejoin="round" fill="none" stroke="#000000" d="M 492.48 324.99 C 492.48 328.12135 489.94163 330.65986 486.81028 330.66 C 483.67893 330.66017 481.1403 328.1219 481.14 324.99055 C 481.1397 321.8592 483.67784 319.32048 486.80918 319.32 C 489.94053 319.31956 492.4794 321.85758 492.48 324.98893 "/>
<path transform="matrix(1,0,0,-1,0,595)" stroke-width="1.4399999" stroke-linecap="round" stroke-linejoin="round" fill="none" stroke="#000000" d="M 262.08 332.1 L 262.08 346.32 L 266.4 346.32 L 266.4 332.1 L 262.08 332.1 "/>
<path transform="matrix(1,0,0,-1,0,595)" stroke-width="1.4399999" stroke-linecap="round" stroke-linejoin="round" fill="none" stroke="#000000" d="M 515.88 339.3 L 564.66 339.3 L 576 327.96 L 576 322.2 L 535.68 322.2 L 535.68 318.06 "/>
<path transform="matrix(-.78829,.61531,.61531,.78829,515.97006,247.33002)" stroke-width="1.4399999" stroke-linecap="round" stroke-linejoin="round" fill="none" stroke="#000000" d="M 8.55 0 C 8.55 2.63267 7.33716 5.11855 5.26217 6.73885 "/>
<path transform="matrix(.78829,-.61531,-.61531,-.78829,486.81,270.01)" stroke-width="1.4399999" stroke-linecap="round" stroke-linejoin="round" fill="none" stroke="#000000" d="M 28.35 0 C 28.35 12.76438 19.81971 23.95477 7.51152 27.33678 "/>
<path transform="matrix(-.0001,1,1,.0001,472.77003,235.98999)" stroke-width="1.4399999" stroke-linecap="round" stroke-linejoin="round" fill="none" stroke="#000000" d="M 8.55 0 C 8.55 1.1286 8.32656 2.24603 7.89257 3.28784 "/>
<path transform="matrix(1,0,0,-1,0,595)" stroke-width="1.4399999" stroke-linecap="round" stroke-linejoin="round" fill="none" stroke="#000000" d="M 410.94 344.88 L 410.94 350.64 L 440.64 350.64 L 440.64 344.88 L 463.32 344.88 L 463.32 350.64 L 472.68 350.64 "/>
<path transform="matrix(-.0001,1,1,.0001,405.27003,250.03)" stroke-width="1.4399999" stroke-linecap="round" stroke-linejoin="round" fill="none" stroke="#000000" d="M 5.67 0 C 5.67 3.13124 3.13179 5.6697 .00054 5.67 "/>
<path transform="matrix(1,0,0,-1,0,595)" stroke-width="1.4399999" stroke-linecap="round" stroke-linejoin="round" fill="none" stroke="#000000" d="M 286.2 339.3 L 405.18 339.3 "/>
<path transform="matrix(-1,-.0001,-.0001,1,286.11,247.33002)" stroke-width="1.4399999" stroke-linecap="round" stroke-linejoin="round" fill="none" stroke="#000000" d="M 8.55 0 C 8.55 4.72171 4.72253 8.54955 .00082 8.55 "/>
<path transform="matrix(1,0,0,-1,0,595)" stroke-width="1.4399999" stroke-linecap="round" stroke-linejoin="round" fill="none" stroke="#000000" d="M 250.74 347.76 L 250.74 352.08 L 277.74 352.08 L 277.74 347.76 "/>
<path transform="matrix(-.0001,1,1,.0001,242.19,247.33002)" stroke-width="1.4399999" stroke-linecap="round" stroke-linejoin="round" fill="none" stroke="#000000" d="M 8.55 0 C 8.55 4.72171 4.72253 8.54955 .00082 8.55 "/>
<path transform="matrix(1,0,0,-1,0,595)" stroke-width="1.4399999" stroke-linecap="round" stroke-linejoin="round" fill="none" stroke="#000000" d="M 224.46 339.3 L 242.28 339.3 "/>
<path transform="matrix(.0001,-1,-1,-.0001,224.55,264.25)" stroke-width="1.4399999" stroke-linecap="round" stroke-linejoin="round" fill="none" stroke="#000000" d="M 8.55 0 C 8.55 4.72171 4.72253 8.54955 .00082 8.55 "/>
<path transform="matrix(1,0,0,-1,0,595)" stroke-width="1.4399999" stroke-linecap="round" stroke-linejoin="round" fill="none" stroke="#000000" d="M 430.74 310.86 L 216 310.86 L 216 318.06 L 262.08 318.06 L 262.08 322.2 L 216 322.2 L 216 330.66 "/>
<path transform="matrix(-.0001,1,1,.0001,430.83003,278.47)" stroke-width="1.4399999" stroke-linecap="round" stroke-linejoin="round" fill="none" stroke="#000000" d="M 5.67 0 C 5.67 3.13124 3.13179 5.6697 .00054 5.67 "/>
<path transform="matrix(1,0,0,-1,0,595)" stroke-width="1.4399999" stroke-linecap="round" stroke-linejoin="round" fill="none" stroke="#000000" d="M 464.76 313.74 L 464.76 334.8 L 436.5 334.8 L 436.5 316.62 "/>
<path transform="matrix(-1,-.0001,-.0001,1,473.31,281.34999)" stroke-width="1.4399999" stroke-linecap="round" stroke-linejoin="round" fill="none" stroke="#000000" d="M 8.55 0 C 8.55 2.00934 7.84232 3.9545 6.55114 5.49409 "/>
<path transform="matrix(-.76622,.64258,.64258,.76622,486.81,270.01)" stroke-width="1.4399999" stroke-linecap="round" stroke-linejoin="round" fill="none" stroke="#000000" d="M 26.19 0 C 26.19 7.6852 22.8145 14.98256 16.95782 19.95867 C 11.10114 24.93478 3.35441 27.08738 -4.22989 25.84616 "/>
<path transform="matrix(.0001,-1,-1,-.0001,513.27,292.69)" stroke-width="1.4399999" stroke-linecap="round" stroke-linejoin="round" fill="none" stroke="#000000" d="M 8.55 0 C 8.55 2.49001 7.46451 4.85632 5.57718 6.48056 "/>
<path transform="matrix(1,0,0,-1,0,595)" stroke-width="1.4399999" stroke-linecap="round" stroke-linejoin="round" fill="none" stroke="#000000" d="M 535.68 318.06 L 576 318.06 L 576 310.86 L 513.18 310.86 "/>
<path transform="matrix(1,0,0,-1,0,595)" stroke-width="1.4399999" stroke-linecap="round" stroke-linejoin="round" fill="none" stroke="#000000" d="M 367.38 373.32 L 367.38 356.22 L 316.26 356.22 L 316.26 373.32 L 367.38 373.32 "/>
<path transform="matrix(1,0,0,-1,0,595)" stroke-width="1.4399999" stroke-linecap="round" stroke-linejoin="round" fill="none" stroke="#000000" d="M 304.92 381.78 L 304.92 376.02 "/>
<path transform="matrix(1,0,0,-1,0,595)" stroke-width="1.4399999" stroke-linecap="round" stroke-linejoin="round" fill="none" stroke="#000000" d="M 384.3 347.76 L 384.3 353.34 "/>
<path transform="matrix(1,0,0,-1,0,595)" stroke-width="1.4399999" stroke-linecap="round" stroke-linejoin="round" fill="none" stroke="#000000" d="M 384.3 376.02 L 384.3 381.78 "/>
<path transform="matrix(1,0,0,-1,0,595)" stroke-width="1.4399999" stroke-linecap="round" stroke-linejoin="round" fill="none" stroke="#000000" d="M 304.92 353.34 L 304.92 347.76 "/>
<path transform="matrix(1,0,0,-1,0,595)" stroke-width="1.4399999" stroke-linecap="round" stroke-linejoin="round" fill="none" stroke="#000000" d="M 384.3 381.78 L 304.92 381.78 "/>
<path transform="matrix(1,0,0,-1,0,595)" stroke-width="1.4399999" stroke-linecap="round" stroke-linejoin="round" fill="none" stroke="#000000" d="M 304.92 347.76 L 384.3 347.76 "/>
<path transform="matrix(1,0,0,-1,0,595)" stroke-width="1.4399999" stroke-linecap="round" stroke-linejoin="round" fill="none" stroke="#000000" d="M 384.3 353.34 L 388.62 353.34 L 388.62 376.02 L 384.3 376.02 "/>
<path transform="matrix(1,0,0,-1,0,595)" stroke-width="1.4399999" stroke-linecap="round" stroke-linejoin="round" fill="none" stroke="#000000" d="M 304.92 376.02 L 300.78 376.02 L 300.78 353.34 L 304.92 353.34 "/>
<path transform="matrix(-1,-.0001,-.0001,1,600.03,158.40998)" stroke-width="1.4399999" stroke-linecap="round" stroke-linejoin="round" fill="none" stroke="#000000" d="M 3.33 0 C 3.33 1.83905 1.83921 3.32991 .00016 3.33 C -1.83889 3.33009 -3.32982 1.83937 -3.33 .00032 C -3.33018 -1.83873 -1.83952 -3.32974 -.00048 -3.33 C 1.83857 -3.33026 3.32965 -1.83968 3.33 -.00064 "/>
<path transform="matrix(-1,-.0001,-.0001,1,600.03,436.33003)" stroke-width="1.4399999" stroke-linecap="round" stroke-linejoin="round" fill="none" stroke="#000000" d="M 3.33 0 C 3.33 1.83905 1.83921 3.32991 .00016 3.33 C -1.83889 3.33009 -3.32982 1.83937 -3.33 .00032 C -3.33018 -1.83873 -1.83952 -3.32974 -.00048 -3.33 C 1.83857 -3.33026 3.32965 -1.83968 3.33 -.00064 "/>
<path transform="matrix(-1,-.0001,-.0001,1,585.81,297.37)" stroke-width="1.4399999" stroke-linecap="round" stroke-linejoin="round" fill="none" stroke="#000000" d="M 3.33 0 C 3.33 1.83905 1.83921 3.32991 .00016 3.33 C -1.83889 3.33009 -3.32982 1.83937 -3.33 .00032 C -3.33018 -1.83873 -1.83952 -3.32974 -.00048 -3.33 C 1.83857 -3.33026 3.32965 -1.83968 3.33 -.00064 "/>
<path transform="matrix(1,0,0,-1,0,595)" stroke-width="1.4399999" stroke-linecap="round" stroke-linejoin="round" fill="none" stroke="#000000" d="M 608.4 156.96 L 628.38 250.92 "/>
<path transform="matrix(-.97802,-.20852,-.20852,.97802,600.03,436.33003)" stroke-width="1.4399999" stroke-linecap="round" stroke-linejoin="round" fill="none" stroke="#000000" d="M 8.55 0 C 8.55 4.72187 4.72228 8.54977 .00041 8.55 C -4.72147 8.55023 -8.54955 4.72269 -8.55 .00082 "/>
<path transform="matrix(1,0,0,-1,0,595)" stroke-width="1.4399999" stroke-linecap="round" stroke-linejoin="round" fill="none" stroke="#000000" d="M 591.48 280.62 L 591.48 255.06 L 599.94 255.06 L 599.94 199.44 L 591.66 160.38 "/>
<path transform="matrix(1,0,0,-1,0,595)" stroke-width="1.4399999" stroke-linecap="round" stroke-linejoin="round" fill="none" stroke="#000000" d="M 591.48 280.71 C 591.48 285.4317 587.6525 289.25956 582.93087 289.26 "/>
<path transform="matrix(-1,-.0001,-.0001,1,582.93,300.25)" stroke-width="1.4399999" stroke-linecap="round" stroke-linejoin="round" fill="none" stroke="#000000" d="M 5.67 0 C 5.67 3.13124 3.13179 5.6697 .00054 5.67 "/>
<path transform="matrix(1,0,0,-1,0,595)" stroke-width="1.4399999" stroke-linecap="round" stroke-linejoin="round" fill="none" stroke="#000000" d="M 577.26 300.42 L 577.26 294.84 "/>
<path transform="matrix(.0001,-1,-1,-.0001,582.93,294.49)" stroke-width="1.4399999" stroke-linecap="round" stroke-linejoin="round" fill="none" stroke="#000000" d="M 5.67 0 C 5.67 3.13124 3.13179 5.6697 .00054 5.67 "/>
<path transform="matrix(-.0001,1,1,.0001,582.93,280.27003)" stroke-width="1.4399999" stroke-linecap="round" stroke-linejoin="round" fill="none" stroke="#000000" d="M 8.55 0 C 8.55 4.72171 4.72253 8.54955 .00082 8.55 "/>
<path transform="matrix(1,0,0,-1,0,595)" stroke-width="1.4399999" stroke-linecap="round" stroke-linejoin="round" fill="none" stroke="#000000" d="M 591.66 434.88 L 599.94 395.82 L 599.94 340.2 L 591.48 340.2 L 591.48 314.64 "/>
<path transform="matrix(.97804,-.20842,-.20842,-.97804,600.03,158.40998)" stroke-width="1.4399999" stroke-linecap="round" stroke-linejoin="round" fill="none" stroke="#000000" d="M 8.55 0 C 8.55 4.72187 4.72228 8.54977 .00041 8.55 C -4.72147 8.55023 -8.54955 4.72269 -8.55 .00082 "/>
<path transform="matrix(1,0,0,-1,0,595)" stroke-width="1.4399999" stroke-linecap="round" stroke-linejoin="round" fill="none" stroke="#000000" d="M 628.38 250.92 L 628.38 344.34 L 608.4 438.3 "/>
<path transform="matrix(1,0,0,-1,0,595)" stroke-width="1.4399999" stroke-linecap="round" stroke-linejoin="round" fill="none" stroke="#000000" d="M 421.2 410.04 L 421.2 390.24 L 416.88 390.24 L 416.88 410.04 L 421.2 410.04 "/>
<path transform="matrix(-1,-.0001,-.0001,1,484.47,190.63)" stroke-width="1.4399999" stroke-linecap="round" stroke-linejoin="round" fill="none" stroke="#000000" d="M 5.67 0 C 5.67 3.13135 3.13162 5.66985 .00027 5.67 C -3.13108 5.67015 -5.6697 3.13189 -5.67 .00054 C -5.6703 -3.13081 -3.13216 -5.66955 -.00082 -5.67 C 3.13053 -5.67045 5.6694 -3.13244 5.67 -.00109 "/>
<path transform="matrix(1,0,0,-1,0,595)" stroke-width="1.4399999" stroke-linecap="round" stroke-linejoin="round" fill="none" stroke="#000000" d="M 263.88 397.26 L 263.88 383.22 L 259.56 383.22 L 259.56 397.26 L 263.88 397.26 "/>
<path transform="matrix(1,0,0,-1,0,595)" stroke-width="1.4399999" stroke-linecap="round" stroke-linejoin="round" fill="none" stroke="#000000" d="M 513.54 390.24 L 562.14 390.24 L 573.48 401.58 L 573.48 407.34 L 533.16 407.34 L 533.16 411.48 "/>
<path transform="matrix(.0001,-1,-1,-.0001,513.45,213.31)" stroke-width="1.4399999" stroke-linecap="round" stroke-linejoin="round" fill="none" stroke="#000000" d="M 8.55 0 C 8.55 2.63267 7.33716 5.11855 5.26217 6.73885 "/>
<path transform="matrix(-.38472,.92303,.92303,.38472,484.47,190.63)" stroke-width="1.4399999" stroke-linecap="round" stroke-linejoin="round" fill="none" stroke="#000000" d="M 28.35 0 C 28.35 12.76438 19.81971 23.95477 7.51152 27.33678 "/>
<path transform="matrix(.38472,-.92303,-.92303,-.38472,470.25,224.65003)" stroke-width="1.4399999" stroke-linecap="round" stroke-linejoin="round" fill="none" stroke="#000000" d="M 8.55 0 C 8.55 1.1286 8.32656 2.24603 7.89257 3.28784 "/>
<path transform="matrix(1,0,0,-1,0,595)" stroke-width="1.4399999" stroke-linecap="round" stroke-linejoin="round" fill="none" stroke="#000000" d="M 408.42 381.78 L 408.42 378.9 L 438.12 378.9 L 438.12 384.66 L 460.8 384.66 L 460.8 378.9 L 470.16 378.9 "/>
<path transform="matrix(1,0,0,-1,0,595)" stroke-width="1.4399999" stroke-linecap="round" stroke-linejoin="round" fill="none" stroke="#000000" d="M 408.42 381.69 C 408.42 386.4117 404.59254 390.23954 399.87083 390.24 "/>
<path transform="matrix(1,0,0,-1,0,595)" stroke-width="1.4399999" stroke-linecap="round" stroke-linejoin="round" fill="none" stroke="#000000" d="M 283.68 390.24 L 399.96 390.24 "/>
<path transform="matrix(.0001,-1,-1,-.0001,283.77003,213.31)" stroke-width="1.4399999" stroke-linecap="round" stroke-linejoin="round" fill="none" stroke="#000000" d="M 8.55 0 C 8.55 4.72171 4.72253 8.54955 .00082 8.55 "/>
<path transform="matrix(1,0,0,-1,0,595)" stroke-width="1.4399999" stroke-linecap="round" stroke-linejoin="round" fill="none" stroke="#000000" d="M 248.22 381.78 L 248.22 377.46 L 275.22 377.46 L 275.22 381.78 "/>
<path transform="matrix(1,0,0,-1,0,595)" stroke-width="1.4399999" stroke-linecap="round" stroke-linejoin="round" fill="none" stroke="#000000" d="M 248.4 381.69 C 248.4 386.4117 244.57254 390.23954 239.85082 390.24 "/>
<path transform="matrix(1,0,0,-1,0,595)" stroke-width="1.4399999" stroke-linecap="round" stroke-linejoin="round" fill="none" stroke="#000000" d="M 222.12 390.24 L 239.76 390.24 "/>
<path transform="matrix(-1,-.0001,-.0001,1,222.03,196.21002)" stroke-width="1.4399999" stroke-linecap="round" stroke-linejoin="round" fill="none" stroke="#000000" d="M 8.55 0 C 8.55 4.72171 4.72253 8.54955 .00082 8.55 "/>
<path transform="matrix(1,0,0,-1,0,595)" stroke-width="1.4399999" stroke-linecap="round" stroke-linejoin="round" fill="none" stroke="#000000" d="M 433.98 418.68 L 213.48 418.68 L 213.48 411.48 L 259.56 411.48 L 259.56 407.34 L 213.48 407.34 L 213.48 398.7 "/>
<path transform="matrix(1,0,0,-1,0,595)" stroke-width="1.4399999" stroke-linecap="round" stroke-linejoin="round" fill="none" stroke="#000000" d="M 439.56 413.01 C 439.56 416.14125 437.0218 418.6797 433.89054 418.68 "/>
<path transform="matrix(1,0,0,-1,0,595)" stroke-width="1.4399999" stroke-linecap="round" stroke-linejoin="round" fill="none" stroke="#000000" d="M 439.56 404.46 L 439.56 412.92 "/>
<path transform="matrix(-1,-.0001,-.0001,1,448.11,190.63)" stroke-width="1.4399999" stroke-linecap="round" stroke-linejoin="round" fill="none" stroke="#000000" d="M 8.55 0 C 8.55 4.72187 4.72228 8.54977 .00041 8.55 C -4.72147 8.55023 -8.54955 4.72269 -8.55 .00082 "/>
<path transform="matrix(1,0,0,-1,0,595)" stroke-width="1.4399999" stroke-linecap="round" stroke-linejoin="round" fill="none" stroke="#000000" d="M 456.66 414.9 L 456.66 404.46 "/>
<path transform="matrix(-.52964,-.84822,-.84822,.52964,462.33003,180.19)" stroke-width="1.4399999" stroke-linecap="round" stroke-linejoin="round" fill="none" stroke="#000000" d="M 5.67 0 C 5.67 1.95542 4.66242 3.77285 3.00399 4.80884 "/>
<path transform="matrix(1,0,0,-1,0,595)" stroke-width="1.4399999" stroke-linecap="round" stroke-linejoin="round" fill="none" stroke="#000000" d="M 472.14 427.68 L 459.36 419.58 "/>
<path transform="matrix(.75802,-.65223,-.65223,-.75802,484.47,190.63)" stroke-width="1.4399999" stroke-linecap="round" stroke-linejoin="round" fill="none" stroke="#000000" d="M 26.19 0 C 26.19 12.25434 17.69266 22.87039 5.73581 25.55419 "/>
<path transform="matrix(-.75808,.65216,.65216,.75808,510.75,167.95001)" stroke-width="1.4399999" stroke-linecap="round" stroke-linejoin="round" fill="none" stroke="#000000" d="M 8.55 0 C 8.55 2.49001 7.46451 4.85632 5.57718 6.48056 "/>
<path transform="matrix(1,0,0,-1,0,595)" stroke-width="1.4399999" stroke-linecap="round" stroke-linejoin="round" fill="none" stroke="#000000" d="M 533.16 411.48 L 573.48 411.48 L 573.48 418.68 L 510.84 418.68 "/>
<path transform="matrix(1,0,0,-1,0,595)" stroke-width="1.4399999" stroke-linecap="round" stroke-linejoin="round" fill="none" stroke="#000000" d="M 527.76 218.43 C 527.76 219.97077 526.51107 221.21985 524.9703 221.22 "/>
<path transform="matrix(-.0001,1,1,.0001,524.97,377.65)" stroke-width="1.4399999" stroke-linecap="round" stroke-linejoin="round" fill="none" stroke="#000000" d="M 2.79 0 C 2.79 1.54077 1.54104 2.78985 .00027 2.79 "/>
<path transform="matrix(.0001,-1,-1,-.0001,507.87,376.57)" stroke-width="1.4399999" stroke-linecap="round" stroke-linejoin="round" fill="none" stroke="#000000" d="M 2.79 0 C 2.79 1.54077 1.54104 2.78985 .00027 2.79 "/>
<path transform="matrix(-1,-.0001,-.0001,1,507.87,377.65)" stroke-width="1.4399999" stroke-linecap="round" stroke-linejoin="round" fill="none" stroke="#000000" d="M 2.79 0 C 2.79 1.54077 1.54104 2.78985 .00027 2.79 "/>
<path transform="matrix(1,0,0,-1,0,595)" stroke-width="1.4399999" stroke-linecap="round" stroke-linejoin="round" fill="none" stroke="#000000" d="M 527.76 218.52 L 527.76 217.26 "/>
<path transform="matrix(1,0,0,-1,0,595)" stroke-width="1.4399999" stroke-linecap="round" stroke-linejoin="round" fill="none" stroke="#000000" d="M 524.88 214.56 L 507.96 214.56 "/>
<path transform="matrix(1,0,0,-1,0,595)" stroke-width="1.4399999" stroke-linecap="round" stroke-linejoin="round" fill="none" stroke="#000000" d="M 507.96 221.4 L 524.88 221.4 "/>
<path transform="matrix(1,0,0,-1,0,595)" stroke-width="1.4399999" stroke-linecap="round" stroke-linejoin="round" fill="none" stroke="#000000" d="M 505.08 217.26 L 505.08 218.52 "/>
<path transform="matrix(1,0,0,-1,0,595)" stroke-width="1.4399999" stroke-linecap="round" stroke-linejoin="round" fill="none" stroke="#000000" d="M 544.68 205.92 L 567.36 205.92 L 567.36 177.66 L 544.68 177.66 L 544.68 205.92 "/>
<path transform="matrix(1,0,0,-1,0,595)" stroke-width="1.4399999" stroke-linecap="round" stroke-linejoin="round" fill="none" stroke="#000000" d="M 490.32 203.22 L 524.88 203.22 L 524.88 178.92 L 490.32 203.22 "/>
<path transform="matrix(-.0001,1,1,.0001,483.21003,386.11)" stroke-width="1.4399999" stroke-linecap="round" stroke-linejoin="round" fill="none" stroke="#000000" d="M 4.23 0 C 4.23 2.33609 2.33629 4.22989 .0002 4.23 C -2.33588 4.23011 -4.22978 2.33649 -4.23 .00041 C -4.23022 -2.33568 -2.33669 -4.22966 -.00061 -4.23 C 2.33548 -4.23034 4.22955 -2.3369 4.23 -.00081 "/>
<path transform="matrix(1,0,0,-1,0,595)" stroke-width="1.4399999" stroke-linecap="round" stroke-linejoin="round" fill="none" stroke="#000000" d="M 580.14 210.24 L 580.14 251.28 "/>
<path transform="matrix(1,0,0,-1,0,595)" stroke-width="1.4399999" stroke-linecap="round" stroke-linejoin="round" fill="none" stroke="#000000" d="M 580.14 251.28 L 567.36 251.28 L 567.36 227.34 "/>
<path transform="matrix(1,0,0,-1,0,595)" stroke-width="1.4399999" stroke-linecap="round" stroke-linejoin="round" fill="none" stroke="#000000" d="M 567.36 227.34 L 541.98 227.34 L 541.98 251.28 L 527.76 251.28 L 474.66 217.26 L 474.66 200.34 L 522.9 166.32 L 580.14 166.32 L 580.14 198.9 L 585.9 198.9 "/>
<path transform="matrix(1,0,0,-1,0,595)" stroke-width="1.4399999" stroke-linecap="round" stroke-linejoin="round" fill="none" stroke="#000000" d="M 585.9 198.9 L 585.9 210.24 L 580.14 210.24 "/>
<path transform="matrix(1,.00019,.00019,-1,231.39,339.85)" stroke-width="1.4399999" stroke-linecap="round" stroke-linejoin="round" fill="none" stroke="#000000" d="M 2.79 0 C 2.79 1.54082 1.54096 2.78993 .00013 2.79 C -1.54069 2.79007 -2.78985 1.54109 -2.79 .00027 C -2.79015 -1.54055 -1.54122 -2.78978 -.0004 -2.79 C 1.54042 -2.79022 2.7897 -1.54136 2.79 -.00053 "/>
<path transform="matrix(1,0,0,-1,0,595)" stroke-width="1.4399999" stroke-linecap="round" stroke-linejoin="round" fill="none" stroke="#000000" d="M 261 257.94 L 299.52 257.94 L 299.52 249.48 L 265.5 249.48 "/>
<path transform="matrix(-.27898,.9603,.9603,.27898,261.09,331.39)" stroke-width="1.4399999" stroke-linecap="round" stroke-linejoin="round" fill="none" stroke="#000000" d="M 5.67 0 C 5.67 .53489 5.59431 1.06709 5.44519 1.58077 "/>
<path transform="matrix(1,0,0,-1,0,595)" stroke-width="1.4399999" stroke-linecap="round" stroke-linejoin="round" fill="none" stroke="#000000" d="M 233.82 265.68 L 259.38 258.12 "/>
<path transform="matrix(.22462,-.97445,-.97445,-.22462,231.39,339.85)" stroke-width="1.4399999" stroke-linecap="round" stroke-linejoin="round" fill="none" stroke="#000000" d="M 10.71 0 C 10.71 5.71188 6.22752 10.41862 .52244 10.69725 C -5.18264 10.97588 -10.10244 6.72833 -10.65903 1.04363 "/>
<path transform="matrix(1,0,0,-1,0,595)" stroke-width="1.4399999" stroke-linecap="round" stroke-linejoin="round" fill="none" stroke="#000000" d="M 247.32 238.32 L 228.06 244.98 "/>
<path transform="matrix(-.3185,.94792,.94792,.3185,249.20999,351.19)" stroke-width="1.4399999" stroke-linecap="round" stroke-linejoin="round" fill="none" stroke="#000000" d="M 5.67 0 C 5.67 .61362 5.57039 1.22318 5.37506 1.80488 "/>
<path transform="matrix(1,0,0,-1,0,595)" stroke-width="1.4399999" stroke-linecap="round" stroke-linejoin="round" fill="none" stroke="#000000" d="M 265.5 249.48 L 265.5 243.72 L 299.52 243.72 L 299.52 238.14 L 249.12 238.14 "/>
</g>
</g>
</g>
</svg>
